<?xml version="1.0" encoding="UTF-8"?>
<svg id="Layer_1" data-name="Layer 1" xmlns="http://www.w3.org/2000/svg" viewBox="0 0 1114.8 431.24">
  <defs>
    <style>
      .cls-1 {
        fill: #231f20;
      }

      .cls-2 {
        fill: #fff;
      }

      .cls-3 {
        fill: #2f8c43;
      }
    </style>
  </defs>
  <ellipse class="cls-2" cx="176.39" cy="193.3" rx="161.24" ry="137.3"/>
  <path class="cls-3" d="M241.13,385.28c-10.26,10.34-50.77,47.02-64,45.93-10.14-.83-28.61-15.18-36.75-21.86-46.64-38.23-114.21-121.06-131.97-179.13C-23.62,125.45,38.83,20.86,145.14,2.78c122.64-20.85,223.27,78.57,205.63,203.66-8.06,57.21-69.43,138.31-109.64,178.85ZM201.91,116.26c-13.92,2.17-54.01,36.73-64.5,48.3-8.17,9.01-11.59,15.54-1.31,24.96,11,10.09,25.32-.89,35.49-8.08,10.89-7.71,24.38-27.97,38.02-17.64,21.71,16.45,41.62,46.68,62.73,64.82,6.39,5.5,11.04,3.01,16.66-2.11,4.25-3.87,17.92-18.44,21.13-22.86,9.24-12.73,4.47-45,1.03-60.02-.98-4.29-6.64-22.72-9.06-24.74-7.28-6.08-21,9-28.87,12.05-3.94,1.53-13.83,4.15-17.77,4.14-18.4-.08-32.78-22.04-53.57-18.8h0ZM125.54,159.19l33.79-31.5c2.03-9.46-10.41-9.49-17.2-8.46-23.27,3.53-36.81,23.33-63.29,11.71-8.14-3.57-22.01-19.56-29.67-9.91-4.22,5.33-11.18,40.63-11.66,48.66-.64,10.53-.76,24.13,5.26,33.14,2.07,3.1,25.46,28.17,27.78,29.4,12.59,6.69,20.16-17.53,35.85-15.76,14.1,1.59,16.02,17.26,20.06,19.65,2.71,1.61,6.93.07,11.62,3,7.5,4.68,8.47,12.99,11.73,16.15,2.63,2.57,9.79,3.76,14.64,8.79,3.58,3.72,6.11,11.02,8.72,13.3,2.4,2.09,6.94,2.45,10.1,4.53,5.39,3.54,14.67,17.41,19.79,18.37,10.77,2.01,16.42-6.81,13.48-16.66-1.29-4.32-24.6-24.09-29.43-30.67-4.85-6.61-5.23-13.68,3.54-8.01,10.96,7.09,19.61,21.04,29.04,29.61,13.32,12.11,27.77-2.76,18.26-15.54-4.22-5.67-16.62-14.98-21.89-20.61-2.18-2.33-7.81-8.75-9.44-11.09-1.39-2.01-2.59-2.25-.02-4.49,3.06-1.6,5.45-.87,8.15.7,9.46,5.55,36.7,49.74,48.57,28.66,2.63-4.66,2.21-9.13-1.28-13.11-18.86-16.23-35.23-38.83-53.16-55.34-1.42-1.3-8.1-6.91-9.09-7.17-4.58-1.21-22.01,16.32-26.75,19.64-14.74,10.32-34.17,15.55-47.19-.73-9.02-11.28-9.94-25.05-.32-36.28h.02ZM105.59,259.93c7.42-6.45,14.97-17.78,5.64-26.07-13.15-11.69-38.56,21.38-24.91,29.62,6.18,3.73,14.21.84,19.27-3.54ZM123.23,251.87c-11.8,2.3-33.61,29.72-13.1,34.8,8.61,2.14,28.14-17.65,26.32-26.63-1.21-5.97-7.46-9.3-13.22-8.18ZM143.57,272.54c-3.09.71-17.7,13.34-18.88,16.3-6.02,15.06,6.24,22.38,18.88,14.67,3.04-1.85,12.69-11,13.89-13.95,4.55-11.18-2.02-19.74-13.89-17.02ZM166.95,291.69c-6.71,1.3-24.75,18.69-22.23,26.18,1.9,5.66,8.47,9.89,14.47,8.92,5.42-.88,20.78-16.68,22.09-22.11,1.83-7.55-7.06-14.4-14.33-12.99h0Z"/>
  <g>
    <path class="cls-1" d="M378.99,111.13h15.7c1.23,0,2.22,1,2.22,2.22v74.66c0,1.23,1,2.22,2.22,2.22h43.71c1.23,0,2.22,1,2.22,2.22v12.89c0,1.23-1,2.22-2.22,2.22h-63.86c-1.23,0-2.22-1-2.22-2.22v-91.99c0-1.23,1-2.22,2.22-2.22Z"/>
    <path class="cls-1" d="M527.47,199.13c-7.29,7.5-17.82,11.25-31.6,11.25s-24.32-3.75-31.6-11.25c-9.77-9.2-14.66-22.46-14.66-39.78s4.88-30.93,14.66-39.78c7.28-7.5,17.82-11.25,31.6-11.25s24.32,3.75,31.6,11.25c9.73,8.86,14.59,22.12,14.59,39.78s-4.86,30.58-14.59,39.78ZM514.88,184.47c4.69-5.89,7.03-14.26,7.03-25.12s-2.35-19.18-7.03-25.09c-4.69-5.91-11.02-8.87-19.01-8.87s-14.35,2.94-19.11,8.83c-4.75,5.89-7.13,14.26-7.13,25.12s2.38,19.24,7.13,25.12c4.75,5.89,11.12,8.83,19.11,8.83s14.32-2.94,19.01-8.83Z"/>
    <path class="cls-1" d="M557.2,111.13h15.38c1.23,0,2.22,1,2.22,2.22v31.89c0,2.02,2.47,2.99,3.85,1.52l32.75-34.93c.42-.45,1.01-.7,1.62-.7h19.72c1.98,0,2.97,2.39,1.57,3.8l-34.44,34.52c-.77.78-.87,2-.22,2.89l37.89,51.7c1.08,1.47.03,3.54-1.79,3.54h-20.37c-.72,0-1.4-.35-1.82-.94l-27.51-38.98c-.8-1.13-2.43-1.27-3.4-.28l-7.2,7.3c-.41.42-.64.98-.64,1.56v29.12c0,1.23-1,2.22-2.22,2.22h-15.38c-1.23,0-2.22-1-2.22-2.22v-91.99c0-1.23,1-2.22,2.22-2.22Z"/>
    <path class="cls-1" d="M685.47,111.13h19.66c.94,0,1.78.59,2.1,1.48l32.55,91.99c.51,1.45-.56,2.97-2.1,2.97h-17.08c-.97,0-1.82-.62-2.12-1.54l-5.37-16.74c-.3-.92-1.15-1.54-2.12-1.54h-32.29c-.96,0-1.81.62-2.11,1.53l-5.53,16.77c-.3.91-1.15,1.53-2.11,1.53h-16.31c-1.54,0-2.61-1.52-2.1-2.97l32.84-91.99c.32-.89,1.15-1.48,2.1-1.48ZM685.65,171.12h18.57c1.51,0,2.58-1.47,2.12-2.9l-9.16-28.54c-.66-2.05-3.56-2.06-4.23-.02l-9.41,28.54c-.47,1.44.6,2.92,2.11,2.92Z"/>
    <path class="cls-1" d="M758.61,111.13h15.7c1.23,0,2.22,1,2.22,2.22v74.66c0,1.23,1,2.22,2.22,2.22h43.71c1.23,0,2.22,1,2.22,2.22v12.89c0,1.23-1,2.22-2.22,2.22h-63.86c-1.23,0-2.22-1-2.22-2.22v-91.99c0-1.23,1-2.22,2.22-2.22Z"/>
    <path class="cls-1" d="M907.33,128.2h-46.59c-1.23,0-2.22,1-2.22,2.22v16.03c0,1.23,1,2.22,2.22,2.22h42.4c1.23,0,2.22,1,2.22,2.22v12.3c0,1.23-1,2.22-2.22,2.22h-42.4c-1.23,0-2.22,1-2.22,2.22v20.35c0,1.23,1,2.22,2.22,2.22h48.94c1.23,0,2.22,1,2.22,2.22v12.89c0,1.23-1,2.22-2.22,2.22h-68.64c-1.23,0-2.22-1-2.22-2.22v-91.99c0-1.23,1-2.22,2.22-2.22h66.28c1.23,0,2.22,1,2.22,2.22v12.63c0,1.23-1,2.22-2.22,2.22Z"/>
    <path class="cls-1" d="M454.89,231.53v12.63c0,1.23-1,2.22-2.22,2.22h-24.41c-1.23,0-2.22,1-2.22,2.22v74.92c0,1.23-1,2.22-2.22,2.22h-15.83c-1.23,0-2.22-1-2.22-2.22v-74.92c0-1.23-1-2.22-2.22-2.22h-24.54c-1.23,0-2.22-1-2.22-2.22v-12.63c0-1.23,1-2.22,2.22-2.22h73.67c1.23,0,2.22,1,2.22,2.22Z"/>
    <path class="cls-1" d="M466.43,287.99c1.23,0,2.22,1,2.22,2.22h0c.16,7.46.93,12.71,2.3,15.74,1.37,3.03,4.31,4.55,8.82,4.55s7.42-1.66,8.85-4.97c.86-1.96,1.29-5.28,1.29-9.95v-65.23c0-1.23,1-2.22,2.22-2.22h15.7c1.23,0,2.22,1,2.22,2.22v64.91c0,8.2-1.39,14.7-4.16,19.5-4.69,8.11-13.16,12.17-25.4,12.17s-20.45-3.28-24.63-9.85c-4.18-6.56-6.27-15.52-6.27-26.86h0c0-1.23,1-2.22,2.22-2.22h14.59Z"/>
    <path class="cls-1" d="M598.75,245.2h-46.59c-1.23,0-2.22,1-2.22,2.22v16.03c0,1.23,1,2.22,2.22,2.22h42.4c1.23,0,2.22,1,2.22,2.22v12.3c0,1.23-1,2.22-2.22,2.22h-42.4c-1.23,0-2.22,1-2.22,2.22v20.35c0,1.23,1,2.22,2.22,2.22h48.94c1.23,0,2.22,1,2.22,2.22v12.89c0,1.23-1,2.22-2.22,2.22h-68.64c-1.23,0-2.22-1-2.22-2.22v-91.99c0-1.23,1-2.22,2.22-2.22h66.28c1.23,0,2.22,1,2.22,2.22v12.63c0,1.23-1,2.22-2.22,2.22Z"/>
    <path class="cls-1" d="M619.19,228.13h17.61c.8,0,1.54.43,1.93,1.12l33.49,58.82c1.13,1.98,4.16,1.18,4.16-1.1v-56.62c0-1.23,1-2.22,2.22-2.22h14.33c1.23,0,2.22,1,2.22,2.22v91.99c0,1.23-1,2.22-2.22,2.22h-16.64c-.8,0-1.53-.43-1.93-1.12l-34.47-60.07c-1.13-1.98-4.15-1.17-4.15,1.11v57.86c0,1.23-1,2.22-2.22,2.22h-14.33c-1.23,0-2.22-1-2.22-2.22v-91.99c0-1.23,1-2.22,2.22-2.22Z"/>
    <path class="cls-1" d="M781.41,245.2h-46.59c-1.23,0-2.22,1-2.22,2.22v16.03c0,1.23,1,2.22,2.22,2.22h42.4c1.23,0,2.22,1,2.22,2.22v12.3c0,1.23-1,2.22-2.22,2.22h-42.4c-1.23,0-2.22,1-2.22,2.22v20.35c0,1.23,1,2.22,2.22,2.22h48.94c1.23,0,2.22,1,2.22,2.22v12.89c0,1.23-1,2.22-2.22,2.22h-68.64c-1.23,0-2.22-1-2.22-2.22v-91.99c0-1.23,1-2.22,2.22-2.22h66.28c1.23,0,2.22,1,2.22,2.22v12.63c0,1.23-1,2.22-2.22,2.22Z"/>
    <path class="cls-1" d="M814.48,294.8c.62,4.41,1.85,7.7,3.67,9.88,3.34,3.97,9.06,5.95,17.17,5.95,4.85,0,8.8-.52,11.82-1.57,5.75-2.01,8.62-5.74,8.62-11.19,0-3.18-1.41-5.65-4.22-7.39-2.82-1.7-7.28-3.21-13.39-4.51l-10.44-2.29c-10.26-2.27-17.31-4.73-21.15-7.39-6.5-4.45-9.75-11.41-9.75-20.87,0-8.64,3.18-15.81,9.54-21.53,6.36-5.71,15.7-8.57,28.02-8.57,10.29,0,19.06,2.69,26.33,8.08,7.26,5.39,11.07,13.21,11.43,23.46h-19.37c-.36-5.8-2.95-9.92-7.78-12.37-3.22-1.61-7.22-2.42-12.01-2.42-5.32,0-9.57,1.05-12.75,3.14-3.17,2.09-4.76,5.02-4.76,8.77,0,3.45,1.57,6.02,4.7,7.72,2.01,1.13,6.28,2.46,12.81,3.99l16.92,3.99c7.42,1.75,12.98,4.08,16.68,7,5.75,4.54,8.62,11.1,8.62,19.69s-3.41,16.13-10.22,21.95c-6.81,5.82-16.43,8.73-28.87,8.73s-22.68-2.87-29.96-8.6c-7.27-5.74-10.91-13.62-10.91-23.65h19.24Z"/>
    <path class="cls-1" d="M950.98,231.63v12.42c0,1.29-1.04,2.33-2.33,2.33h-24.2c-1.29,0-2.33,1.04-2.33,2.33v74.71c0,1.29-1.04,2.33-2.33,2.33h-15.63c-1.29,0-2.33-1.04-2.33-2.33v-74.71c0-1.29-1.04-2.33-2.33-2.33h-24.33c-1.29,0-2.33-1.04-2.33-2.33v-12.42c0-1.29,1.04-2.33,2.33-2.33h73.47c1.29,0,2.33,1.04,2.33,2.33Z"/>
    <path class="cls-1" d="M1025.69,245.2h-46.38c-1.29,0-2.33,1.04-2.33,2.33v15.83c0,1.29,1.04,2.33,2.33,2.33h42.19c1.29,0,2.33,1.04,2.33,2.33v12.1c0,1.29-1.04,2.33-2.33,2.33h-42.19c-1.29,0-2.33,1.04-2.33,2.33v20.14c0,1.29,1.04,2.33,2.33,2.33h48.74c1.29,0,2.33,1.04,2.33,2.33v12.68c0,1.29-1.04,2.33-2.33,2.33h-68.43c-1.29,0-2.33-1.04-2.33-2.33v-91.79c0-1.29,1.04-2.33,2.33-2.33h66.08c1.29,0,2.33,1.04,2.33,2.33v12.42c0,1.29-1.04,2.33-2.33,2.33Z"/>
    <path class="cls-1" d="M1112.46,316.71s0-.05,0-.08c-.22-1.71-.33-4.29-.33-7.77v-6.48c0-6.76-.93-11.79-2.78-15.08-1-1.78-2.38-3.33-4.14-4.67-1.88-1.44-1.83-4.3.13-5.62,2.57-1.74,4.57-3.98,6-6.71,2.31-4.43,3.47-8.93,3.47-13.51,0-3.79-.6-7.17-1.79-10.14-1.19-2.97-2.81-5.67-4.85-8.11-2.47-2.97-5.48-5.21-9.03-6.74-3.55-1.53-8.62-2.36-15.22-2.49h-42.61c-1.95,0-3.52,1.58-3.52,3.52v89.4c0,1.95,1.58,3.52,3.52,3.52h12.65c1.95,0,3.52-1.58,3.52-3.52v-32.99c0-.72.58-1.3,1.3-1.3h18.38c5.61,0,9.44,1.03,11.48,3.08,2.04,2.05,3.1,6.15,3.19,12.3l.13,8.96c.04,2.84.33,5.61.85,8.31.19.95.47,2.13.85,3.52.26.97,1.14,1.65,2.15,1.65h15.47c.74,0,1.33-.61,1.31-1.36-.06-2.41,0-5-.13-7.68ZM1088.87,270.39c-2.16,1.05-5.39,1.57-9.69,1.57h-20.39c-.72,0-1.3-.58-1.3-1.3v-23.31c0-.72.58-1.3,1.3-1.3h20.95c4.14,0,7.25.57,9.32,1.7,3.69,2.01,5.53,5.93,5.53,11.78,0,5.41-1.91,9.03-5.72,10.86Z"/>
  </g>
</svg>